# xmcd
#
# Track frame offsets:
#	150
#	11392
#	26005
#	41432
#	45470
#	79177
#	98805
#	119012
#	139875
#	153775
#
# Disc length: 2321 seconds
#
# Revision: 0
# Processed by: cddbd v1.5.2PL0 Copyright (c) Steve Scherf et al.
# Submitted via: EZCDAudioConverter 1.0.8.1
#
DISCID=74090f0a
DTITLE=Andre Christovam - Mandinga
DYEAR=1989
DGENRE=Blues
TTITLE0=Sebo Nas Canelas
TTITLE1=Confortável
TTITLE2=Duvido (Mas Tô Tentando)
TTITLE3=Blind Dog
TTITLE4=Mandinga
TTITLE5=So Long Boemia
TTITLE6=Genuíno Pedaço Do Cristo
TTITLE7=Dados Chumbados
TTITLE8=Palhaço De Gesso
TTITLE9=Genuíno Pedaço Do Cristo [Com Lenine]
EXTD=
EXTT0=
EXTT1=
EXTT2=
EXTT3=
EXTT4=
EXTT5=
EXTT6=
EXTT7=
EXTT8=
EXTT9=
PLAYORDER=
